<svg xmlns="http://www.w3.org/2000/svg" width="20" height="20.034" viewBox="0 0 20 20.034"><defs><style>.a{fill:#fff;}</style></defs><path class="a" d="M11.98,7.18a4.8,4.8,0,1,0,4.8,4.8,4.8,4.8,0,0,0-4.8-4.8Zm0,7.915A3.117,3.117,0,1,1,15.1,11.978,3.117,3.117,0,0,1,11.98,15.1Z" transform="translate(-1.987 -1.987)"/><circle class="a" cx="1.28" cy="1.28" r="1.28" transform="translate(14.001 3.438)"/><path class="a" d="M19.472,3.451A5.115,5.115,0,0,0,16.549.528,7.341,7.341,0,0,0,14.12.061C13.051.014,12.713,0,10,0S6.942,0,5.88.061A7.341,7.341,0,0,0,3.451.528,5.115,5.115,0,0,0,.528,3.451,7.341,7.341,0,0,0,.061,5.88C.014,6.949,0,7.287,0,10s0,3.058.061,4.12a7.341,7.341,0,0,0,.467,2.429,5.115,5.115,0,0,0,2.923,2.923,7.341,7.341,0,0,0,2.429.5c1.069.047,1.407.061,4.12.061s3.058,0,4.12-.061a7.341,7.341,0,0,0,2.429-.467,5.115,5.115,0,0,0,2.923-2.923,7.341,7.341,0,0,0,.467-2.429c.047-1.069.061-1.407.061-4.12s0-3.058-.061-4.12a7.341,7.341,0,0,0-.467-2.463ZM18.119,14.039a5.535,5.535,0,0,1-.345,1.874,3.315,3.315,0,0,1-1.9,1.9,5.535,5.535,0,0,1-1.854.345c-1.055.047-1.353.061-4.06.061s-2.984,0-4.06-.061a5.534,5.534,0,0,1-1.854-.345,3.309,3.309,0,0,1-1.908-1.9,5.535,5.535,0,0,1-.345-1.854C1.746,13,1.732,12.706,1.732,10s0-2.984.061-4.06a5.534,5.534,0,0,1,.345-1.874,3.309,3.309,0,0,1,1.908-1.9A5.535,5.535,0,0,1,5.9,1.82c1.055-.047,1.353-.061,4.06-.061s2.984,0,4.06.061a5.534,5.534,0,0,1,1.854.345,3.315,3.315,0,0,1,1.9,1.9,5.535,5.535,0,0,1,.345,1.854c.047,1.055.061,1.353.061,4.06s0,3-.047,4.06Z" transform="translate(0 0)"/></svg>