<svg xmlns="http://www.w3.org/2000/svg" width="25" height="17.614" viewBox="0 0 25 17.614"><defs><style>.a{fill:#fff;}</style></defs><path class="a" d="M32.478,36.75a3.141,3.141,0,0,0-2.21-2.225C28.318,34,20.5,34,20.5,34s-7.818,0-9.767.526a3.141,3.141,0,0,0-2.21,2.225,35.365,35.365,0,0,0,0,12.113,3.141,3.141,0,0,0,2.21,2.225c1.95.526,9.767.526,9.767.526s7.818,0,9.767-.526a3.141,3.141,0,0,0,2.21-2.225,35.365,35.365,0,0,0,0-12.113ZM17.943,46.524V39.09l6.534,3.717Z" transform="translate(-8 -34)"/></svg>